<svg width="24" height="24" viewBox="0 0 26 26" fill="none" xmlns="http://www.w3.org/2000/svg">
<path d="M23.6227 10.8786H22.7501V10.8337H13.0001V15.167H19.1225C18.2293 17.6895 15.8292 19.5003 13.0001 19.5003C9.41046 19.5003 6.50008 16.59 6.50008 13.0003C6.50008 9.4107 9.41046 6.50033 13.0001 6.50033C14.657 6.50033 16.1645 7.12541 17.3123 8.14645L20.3765 5.08224C18.4417 3.27903 15.8536 2.16699 13.0001 2.16699C7.01737 2.16699 2.16675 7.01762 2.16675 13.0003C2.16675 18.983 7.01737 23.8337 13.0001 23.8337C18.9828 23.8337 23.8334 18.983 23.8334 13.0003C23.8334 12.274 23.7587 11.5649 23.6227 10.8786Z" fill="#FFC107"/>
<path d="M3.41577 7.95795L6.97506 10.5682C7.93815 8.18383 10.2706 6.50033 13 6.50033C14.657 6.50033 16.1644 7.12541 17.3122 8.14645L20.3764 5.08224C18.4416 3.27903 15.8535 2.16699 13 2.16699C8.83894 2.16699 5.23035 4.5162 3.41577 7.95795Z" fill="#FF3D00"/>
<path d="M13.0001 23.8337C15.7983 23.8337 18.3409 22.7628 20.2633 21.0214L16.9104 18.1841C15.7862 19.0391 14.4125 19.5015 13.0001 19.5004C10.1823 19.5004 7.7898 17.7037 6.88846 15.1963L3.35571 17.9182C5.14863 21.4265 8.78971 23.8337 13.0001 23.8337Z" fill="#4CAF50"/>
<path d="M23.6226 10.878H22.75V10.833H13V15.1663H19.1225C18.6952 16.3669 17.9256 17.416 16.9087 18.184L16.9103 18.1829L20.2632 21.0201C20.026 21.2357 23.8333 18.4163 23.8333 12.9997C23.8333 12.2733 23.7586 11.5643 23.6226 10.878Z" fill="#1976D2"/>
</svg>
